<svg xmlns="http://www.w3.org/2000/svg" data-name="Layer 1" viewBox="0 0 64 80" x="0px" y="0px"><title>Home and Building Renovation</title><path d="M6.354,28.206a5.322,5.322,0,0,0,3.681.678v28.55a1,1,0,0,0,1,1H47.072V61a1,1,0,0,0,1,1h8.559a1,1,0,0,0,1-1V47.466h3.247a1,1,0,0,0,.811-1.584L53.352,34.289v-5.4A5.365,5.365,0,0,0,56.8,18.867l-5.081-2.71V5.446a1,1,0,0,0-1-1H39.957a1,1,0,0,0-1,1V9.352L33.8,6.6a4.479,4.479,0,0,0-4.221,0h0L6.59,18.867a5.368,5.368,0,0,0-.236,9.339ZM38.7,56.434H25.08v-17.1H38.7Zm2,0v-18.1a1,1,0,0,0-1-1H24.08a1,1,0,0,0-1,1v18.1H12.035v-28.3L31.693,17.645,51.352,28.128v6.161L43.015,45.882a1,1,0,0,0,.811,1.584h3.246v8.968ZM56.631,45.466a1,1,0,0,0-1,1V60H49.072V46.466a1,1,0,0,0-1-1h-2.3l6.575-9.142,6.575,9.142ZM40.957,6.446h8.76V15.09l-8.76-4.672ZM7.531,20.631,30.524,8.368a2.482,2.482,0,0,1,2.338,0L55.856,20.631a3.367,3.367,0,1,1-3.168,5.943L32.164,15.629a1,1,0,0,0-.941,0L10.7,26.574a3.368,3.368,0,0,1-3.169-5.943Z"/><path d="M28.726,49.475a1.669,1.669,0,1,0-1.669-1.669A1.67,1.67,0,0,0,28.726,49.475Z"/><text x="0" y="79" fill="#000000" font-size="5px" font-weight="bold" font-family="'Helvetica Neue', Helvetica, Arial-Unicode, Arial, Sans-serif">Created by Capativ Design</text><text x="0" y="84" fill="#000000" font-size="5px" font-weight="bold" font-family="'Helvetica Neue', Helvetica, Arial-Unicode, Arial, Sans-serif">from the Noun Project</text></svg>