<svg xmlns="http://www.w3.org/2000/svg" data-name="Layer 1" viewBox="0 0 64 80" x="0px" y="0px"><title>Home and Building Renovation</title><circle cx="27.134" cy="47.657" r="1.669"/><path d="M51.759,33.012V28.737a5.365,5.365,0,0,0,3.446-10.019l-5.081-2.71V5.3a1,1,0,0,0-1-1H38.364a1,1,0,0,0-1,1V9.2L32.211,6.455a4.482,4.482,0,0,0-4.221,0L5,18.718A5.363,5.363,0,0,0,8.442,28.736V57.285a1,1,0,0,0,1,1H40.57A14,14,0,1,0,51.759,33.012ZM39.364,6.3h8.76v8.643l-8.76-4.671ZM5.79,26.342a3.367,3.367,0,0,1,.148-5.859L28.932,8.22a2.477,2.477,0,0,1,2.338,0L54.264,20.483A3.367,3.367,0,0,1,51.1,26.427L30.571,15.479a1,1,0,0,0-.941,0L9.1,26.429A3.337,3.337,0,0,1,5.79,26.342Zm4.652,1.64L30.1,17.5,49.759,27.981v4.646A13.851,13.851,0,0,0,37.8,37.181H22.487a1,1,0,0,0-1,1v18.1H10.442Zm25.849,11.2a13.926,13.926,0,0,0,1.849,17.1H23.487v-17.1Zm9.082,19.026V53.071a1,1,0,0,0-.521-.878,6.979,6.979,0,0,1-.962-11.641v5.739a1,1,0,0,0,1,1h6.6a1,1,0,0,0,1-1V40.552a6.981,6.981,0,0,1-.962,11.641,1,1,0,0,0-.521.878v5.136a11.592,11.592,0,0,1-5.63,0ZM53,57.539v-3.9a8.985,8.985,0,0,0-1.1-15.77,1,1,0,0,0-1.414.91v6.508h-4.6V38.783a1,1,0,0,0-1.414-.91,8.984,8.984,0,0,0-1.1,15.77v3.9a12.01,12.01,0,1,1,9.63,0Z"/><text x="0" y="79" fill="#000000" font-size="5px" font-weight="bold" font-family="'Helvetica Neue', Helvetica, Arial-Unicode, Arial, Sans-serif">Created by Capativ Design</text><text x="0" y="84" fill="#000000" font-size="5px" font-weight="bold" font-family="'Helvetica Neue', Helvetica, Arial-Unicode, Arial, Sans-serif">from the Noun Project</text></svg>