<svg xmlns="http://www.w3.org/2000/svg" data-name="Layer 2" viewBox="0 0 100 125" x="0px" y="0px"><title>Home Protection</title><path data-name="Home Protection" d="M94.35,40.74c1.8,1.49-.53,4-2.24,2.56L89.35,41a.75.75,0,0,0-1.27.21A64.17,64.17,0,0,1,77.45,54.26a4.14,4.14,0,0,1-5.64,0A58.78,58.78,0,0,1,54.27,23.62a4.19,4.19,0,0,1,2.66-4.68c1.17-.43,2.34-1,3.51-1.49.32-.11.42-.32.53-.64a.85.85,0,0,0-.32-.75L53.42,9.68a5.17,5.17,0,0,0-6.8,0l-15,13a1.73,1.73,0,0,1-2.87-1.38V16.6a.79.79,0,0,0-.85-.86H20.15a.79.79,0,0,0-.85.86V32.66A1.81,1.81,0,0,1,18.56,34L7.82,43.3a1.69,1.69,0,0,1-2.44-.11,1.8,1.8,0,0,1,.21-2.45l9.88-8.61a.91.91,0,0,0,.32-.64V15.74a3.55,3.55,0,0,1,3.51-3.51h9.46a3.55,3.55,0,0,1,3.51,3.51.81.81,0,0,0,.53.75.78.78,0,0,0,.85-.11L44.28,7.13A8.56,8.56,0,0,1,50,5a8.1,8.1,0,0,1,5.63,2.13l8.83,7.66a1,1,0,0,0,1,.1A60.46,60.46,0,0,0,72,10.32a3.88,3.88,0,0,1,5.11,0,56.81,56.81,0,0,0,15.2,8.62,4.12,4.12,0,0,1,2.55,4.68,57.73,57.73,0,0,1-4.36,12.87.82.82,0,0,0,.21,1.06ZM81.27,23.94c1.49-1.71,4.15.53,2.66,2.23L74.68,36.91a3.43,3.43,0,0,1-5.21,0L65.33,32a1.81,1.81,0,0,1,.1-2.45,1.72,1.72,0,0,1,2.45.22l3.51,4a.9.9,0,0,0,1.38,0Zm10.21-1.07a.45.45,0,0,0-.32-.64A59.56,59.56,0,0,1,75,13a.51.51,0,0,0-.74,0A56.75,56.75,0,0,1,58.1,22.13a.8.8,0,0,0-.43.74A56.37,56.37,0,0,0,74.15,51.81a.65.65,0,0,0,.85,0A55.23,55.23,0,0,0,91.48,22.87Zm-41.78-6c2.23-.1,2.34,3.41.11,3.52a5,5,0,0,0-3.19,1.27L21,44.36a5.24,5.24,0,0,0-1.7,4V86.28a5.22,5.22,0,0,0,5.1,5.32H35.25a.94.94,0,0,0,1-.86V59.47a5.2,5.2,0,0,1,5.1-5.21H58.63a5.22,5.22,0,0,1,5.21,5.21V90.74a.92.92,0,0,0,.85.86h11a5.22,5.22,0,0,0,5.1-5.32V57.87a1.7,1.7,0,1,1,3.4,0V86.28A8.58,8.58,0,0,1,75.64,95H62.14a1.77,1.77,0,0,1-1.81-1.7V59.47a1.67,1.67,0,0,0-1.7-1.7H41.3a1.68,1.68,0,0,0-1.7,1.7V93.3A1.67,1.67,0,0,1,37.9,95H24.4a8.67,8.67,0,0,1-8.61-8.72V48.4a8.56,8.56,0,0,1,3-6.59L44.39,19a8.78,8.78,0,0,1,5.31-2.13Z"/><text x="0" y="115" fill="#000000" font-size="5px" font-weight="bold" font-family="'Helvetica Neue', Helvetica, Arial-Unicode, Arial, Sans-serif">Created by Andros9</text><text x="0" y="120" fill="#000000" font-size="5px" font-weight="bold" font-family="'Helvetica Neue', Helvetica, Arial-Unicode, Arial, Sans-serif">from the Noun Project</text></svg>