<svg xmlns="http://www.w3.org/2000/svg" data-name="Layer 2" viewBox="0 0 100 125" x="0px" y="0px"><title>Renovation</title><path d="M94.37,40.7a1.74,1.74,0,0,1-2.23,2.66L53.43,9.78a5.17,5.17,0,0,0-6.8,0l-15,12.86a1.7,1.7,0,0,1-2.87-1.28V16.58a.84.84,0,0,0-.85-.85H20.15a.84.84,0,0,0-.85.85V32.63A1.68,1.68,0,0,1,18.56,34L7.82,43.36a1.71,1.71,0,0,1-2.44-.21,1.8,1.8,0,0,1,.21-2.45l9.89-8.6a.78.78,0,0,0,.32-.64V15.73a3.63,3.63,0,0,1,3.5-3.5h9.47a3.64,3.64,0,0,1,3.51,3.5.84.84,0,0,0,1.38.64L44.29,7.13A9.09,9.09,0,0,1,50,5a8.63,8.63,0,0,1,5.64,2.13Zm-28.92,34a4.35,4.35,0,0,1,5.21.64L81.08,85.76a4.43,4.43,0,0,1,0,6l-2,1.91a4.3,4.3,0,0,1-6,0L62.68,83.31a4.32,4.32,0,0,1-.63-5.2A.83.83,0,0,0,61.94,77a10.94,10.94,0,0,1-2.13-11.9l5.32-13a7.5,7.5,0,0,0-1.7-8.4L60,40.28a1.63,1.63,0,0,0-2.13,0l-1.06,1.06c-.54.53-.32,1.06.1,1.49a4.81,4.81,0,0,1,0,7L37.17,69.71a5.15,5.15,0,0,1-7.13,0l-3.83-3.93a5,5,0,0,1,0-7L46,38.9a5.12,5.12,0,0,1,7.12,0,.81.81,0,0,0,1.28,0l1.06-1.07a5,5,0,0,1,7,0l3.4,3.51a10.86,10.86,0,0,1,2.45,12.22L63,66.42a7.9,7.9,0,0,0,1.28,8.18,1,1,0,0,0,1.17.1Zm-17-33.36L28.66,61.21a1.42,1.42,0,0,0,0,2.13l3.83,3.93a1.76,1.76,0,0,0,2.23,0L54.5,47.4a1.42,1.42,0,0,0,0-2.13l-3.83-3.93a1.76,1.76,0,0,0-2.23,0ZM67,77.89l-1.91,1.92a.7.7,0,0,0,0,1.06L75.55,91.28a.71.71,0,0,0,1.06,0l2-1.91a.83.83,0,0,0,0-1.17L68.32,77.89a1,1,0,0,0-1.28,0ZM80.76,48.35a5.31,5.31,0,0,0-1.81-4L53.33,21.68a5,5,0,0,0-6.7,0L21,44.32a5.22,5.22,0,0,0-1.71,4V86.18a5.22,5.22,0,0,0,5.11,5.31H63.75C66,91.49,66,95,63.75,95H24.41a8.75,8.75,0,0,1-8.61-8.82V48.35a8.7,8.7,0,0,1,3-6.58L44.4,19.13a8.45,8.45,0,0,1,11.27,0L81.29,41.77a8.61,8.61,0,0,1,2.87,6.58V78.42a1.7,1.7,0,0,1-3.4,0Z"/><text x="0" y="115" fill="#000000" font-size="5px" font-weight="bold" font-family="'Helvetica Neue', Helvetica, Arial-Unicode, Arial, Sans-serif">Created by Andros9</text><text x="0" y="120" fill="#000000" font-size="5px" font-weight="bold" font-family="'Helvetica Neue', Helvetica, Arial-Unicode, Arial, Sans-serif">from the Noun Project</text></svg>